<svg width="27" height="28" viewBox="0 0 27 28" fill="none" xmlns="http://www.w3.org/2000/svg">
<path d="M9.19874 8.88081C9.65802 8.88081 10.0303 9.25313 10.0303 9.71241V11.0984H11.4163C11.8756 11.0984 12.2479 11.4707 12.2479 11.93C12.2479 12.3893 11.8756 12.7616 11.4163 12.7616H10.0303V14.1476C10.0303 14.6069 9.65802 14.9792 9.19874 14.9792C8.73946 14.9792 8.36714 14.6069 8.36714 14.1476V12.7616H6.98114C6.52186 12.7616 6.14954 12.3893 6.14954 11.93C6.14954 11.4707 6.52186 11.0984 6.98114 11.0984H8.36714V9.71241C8.36714 9.25313 8.73946 8.88081 9.19874 8.88081Z" fill="white" fill-opacity="0.6"/>
<path d="M19.1779 13.8704C19.1779 13.258 18.6815 12.7616 18.0691 12.7616C17.4567 12.7616 16.9603 13.258 16.9603 13.8704V14.1476C16.9603 14.76 17.4567 15.2564 18.0691 15.2564C18.6815 15.2564 19.1779 14.76 19.1779 14.1476V13.8704Z" fill="white" fill-opacity="0.6"/>
<path d="M18.0691 8.60361C18.6815 8.60361 19.1779 9.10004 19.1779 9.71241V9.98961C19.1779 10.602 18.6815 11.0984 18.0691 11.0984C17.4567 11.0984 16.9603 10.602 16.9603 9.98961V9.71241C16.9603 9.10004 17.4567 8.60361 18.0691 8.60361Z" fill="white" fill-opacity="0.6"/>
<path d="M21.3955 11.93C21.3955 12.5424 20.8991 13.0388 20.2867 13.0388H20.0095C19.3971 13.0388 18.9007 12.5424 18.9007 11.93C18.9007 11.3176 19.3971 10.8212 20.0095 10.8212H20.2867C20.8991 10.8212 21.3955 11.3176 21.3955 11.93Z" fill="white" fill-opacity="0.6"/>
<path d="M16.1287 13.0388C16.7411 13.0388 17.2375 12.5424 17.2375 11.93C17.2375 11.3176 16.7411 10.8212 16.1287 10.8212H15.8515C15.2392 10.8212 14.7427 11.3176 14.7427 11.93C14.7427 12.5424 15.2392 13.0388 15.8515 13.0388H16.1287Z" fill="white" fill-opacity="0.6"/>
<path fill-rule="evenodd" clip-rule="evenodd" d="M14.4655 4.16842C14.4655 3.70914 14.0932 3.33682 13.6339 3.33682C13.1747 3.33682 12.8023 3.70914 12.8023 4.16842V5.81707C11.2067 5.83887 9.61162 5.92345 8.02094 6.07079L7.65327 6.10485C5.00135 6.3505 2.9593 8.55268 2.91416 11.2156L2.90076 12.0066C2.84831 15.1014 3.09777 18.1939 3.64559 21.2402C3.9172 22.7506 5.2315 23.8496 6.76609 23.8496H7.01119C8.38095 23.8496 9.62204 23.0424 10.1774 21.7902L11.3534 19.1388C12.2306 17.161 15.0373 17.161 15.9145 19.1388L17.0905 21.7902C17.6458 23.0424 18.8869 23.8496 20.2567 23.8496H20.5018C22.0364 23.8496 23.3507 22.7506 23.6223 21.2402C24.1701 18.1939 24.4196 15.1014 24.3671 12.0066L24.3537 11.2156C24.3086 8.55268 22.2665 6.3505 19.6146 6.10485L19.2469 6.07079C17.6562 5.92345 16.0612 5.83887 14.4655 5.81707V4.16842ZM8.17435 7.7269C11.8063 7.39047 15.4616 7.39047 19.0935 7.7269L19.4612 7.76096C21.2684 7.92836 22.66 9.42908 22.6907 11.2437L22.7041 12.0348C22.7548 15.0215 22.514 18.0059 21.9853 20.9458C21.8562 21.6639 21.2314 22.1864 20.5018 22.1864H20.2567C19.5447 22.1864 18.8995 21.7668 18.6108 21.1159L17.4348 18.4644C15.9729 15.1682 11.295 15.1682 9.83302 18.4644L8.65703 21.1159C8.36835 21.7668 7.72321 22.1864 7.01119 22.1864H6.76609C6.03651 22.1864 5.41166 21.6639 5.28253 20.9458C4.75384 18.0059 4.5131 15.0215 4.56372 12.0348L4.57712 11.2438C4.60788 9.42908 5.99948 7.92836 7.80667 7.76096L8.17435 7.7269Z" fill="white" fill-opacity="0.6"/>
</svg>
