<svg width="20" height="22" viewBox="0 0 20 22" fill="none" xmlns="http://www.w3.org/2000/svg">
<path fill-rule="evenodd" clip-rule="evenodd" d="M9.98898 4.77201C7.99877 4.77201 6.38539 6.3854 6.38539 8.37561C6.38539 10.3658 7.99877 11.9792 9.98898 11.9792C11.9792 11.9792 13.5926 10.3658 13.5926 8.37561C13.5926 6.3854 11.9792 4.77201 9.98898 4.77201ZM8.04859 8.37561C8.04859 7.30396 8.91733 6.43521 9.98898 6.43521C11.0606 6.43521 11.9294 7.30396 11.9294 8.37561C11.9294 9.44726 11.0606 10.316 9.98898 10.316C8.91733 10.316 8.04859 9.44726 8.04859 8.37561Z" fill="white"/>
<path fill-rule="evenodd" clip-rule="evenodd" d="M9.98898 0.336823C5.54928 0.336823 1.9502 3.93591 1.9502 8.37561C1.9502 10.0035 2.43406 11.5183 3.2658 12.7842L0.39841 17.7506C0.235344 18.0331 0.252424 18.3848 0.44209 18.6501C0.631757 18.9154 0.958997 19.0453 1.279 18.9824L4.17725 18.4127L5.13297 21.2075C5.23849 21.5161 5.51465 21.7345 5.83925 21.7661C6.16384 21.7977 6.47695 21.6367 6.64002 21.3542L9.50046 16.3998C9.66206 16.4095 9.82495 16.4144 9.98898 16.4144C10.153 16.4144 10.3159 16.4095 10.4775 16.3998L13.338 21.3542C13.5012 21.637 13.8147 21.798 14.1396 21.766C14.4645 21.734 14.7406 21.5149 14.8456 21.2058L15.7964 18.4053L18.6972 18.9821C19.0174 19.0457 19.3452 18.9162 19.5354 18.6508C19.7255 18.3854 19.7428 18.0334 19.5796 17.7506L16.7122 12.7842C17.5439 11.5183 18.0278 10.0035 18.0278 8.37561C18.0278 3.93591 14.4287 0.336823 9.98898 0.336823ZM3.61339 8.37561C3.61339 4.85447 6.46784 2.00002 9.98898 2.00002C13.5101 2.00002 16.3646 4.85447 16.3646 8.37561C16.3646 11.8967 13.5101 14.7512 9.98898 14.7512C6.46784 14.7512 3.61339 11.8967 3.61339 8.37561ZM7.75338 16.0994C6.47495 15.7301 5.32756 15.0519 4.3972 14.1509L2.75374 16.9975L4.56881 16.6407C4.9769 16.5604 5.38151 16.794 5.51608 17.1876L6.1146 18.9379L7.75338 16.0994ZM13.8607 18.9333L12.2246 16.0994C13.503 15.7301 14.6504 15.0519 15.5808 14.1509L17.2216 16.9929L15.4056 16.6318C14.9964 16.5504 14.5902 16.785 14.456 17.1801L13.8607 18.9333Z" fill="white"/>
</svg>
