<svg width="24" height="24" viewBox="0 0 24 24" fill="none" xmlns="http://www.w3.org/2000/svg">
<path fill-rule="evenodd" clip-rule="evenodd" d="M10.4726 19.8844C10.9303 20.3943 11.518 20.6744 12.1278 20.6744H12.1287C12.7411 20.6744 13.3314 20.3943 13.7901 19.8835C14.0357 19.6122 14.4546 19.5901 14.7259 19.8349C14.9981 20.0797 15.0202 20.4994 14.7754 20.7707C14.0614 21.5634 13.122 22 12.1287 22H12.1269C11.1362 21.9991 10.1986 21.5626 9.48722 20.7699C9.24243 20.4986 9.26453 20.0788 9.53671 19.8349C9.8089 19.5892 10.2278 19.6113 10.4726 19.8844ZM12.1718 3C16.0999 3 18.7387 6.05944 18.7387 8.91651C18.7387 10.3861 19.1125 11.0092 19.5093 11.6702C19.9017 12.3224 20.3462 13.0629 20.3462 14.4627C20.0378 18.0392 16.3041 18.3308 12.1718 18.3308C8.03951 18.3308 4.30491 18.0392 4.00001 14.5193C3.99737 13.0629 4.44188 12.3224 4.83426 11.6702L4.97277 11.437C5.31383 10.8509 5.60486 10.2132 5.60486 8.91651C5.60486 6.05944 8.24365 3 12.1718 3ZM12.1718 4.32558C9.08319 4.32558 6.93044 6.74521 6.93044 8.91651C6.93044 10.7538 6.42053 11.603 5.96984 12.3524C5.6084 12.9542 5.32295 13.4297 5.32295 14.4627C5.47053 16.1294 6.57077 17.0052 12.1718 17.0052C17.7419 17.0052 18.8766 16.0906 19.0233 14.4053C19.0206 13.4297 18.7352 12.9542 18.3737 12.3524C17.923 11.603 17.4131 10.7538 17.4131 8.91651C17.4131 6.74521 15.2604 4.32558 12.1718 4.32558Z" fill="#3A94E7"/>
<path fill-rule="evenodd" clip-rule="evenodd" d="M13.7901 19.8835C13.3314 20.3943 12.7411 20.6744 12.1287 20.6744C11.5189 20.6744 10.9303 20.3943 10.4726 19.8844C10.2278 19.6113 9.8089 19.5892 9.53671 19.8349C9.26453 20.0788 9.24243 20.4986 9.48723 20.7699C10.1986 21.5626 11.1362 21.9991 12.1269 22H12.1287C13.122 22 14.0614 21.5634 14.7754 20.7707C15.0202 20.4994 14.9981 20.0797 14.7259 19.8349C14.4546 19.5901 14.0357 19.6122 13.7901 19.8835ZM14.8497 20.8377C14.1183 21.6497 13.1526 22.1 12.1287 22.1H12.1269C11.1057 22.0991 10.1417 21.6488 9.41298 20.8368C9.13121 20.5246 9.15651 20.0416 9.46971 19.7606C9.78298 19.4779 10.2653 19.5033 10.547 19.8176C10.9884 20.3092 11.5501 20.5744 12.1278 20.5744C12.7083 20.5744 13.2735 20.3091 13.7157 19.8167C13.9981 19.5047 14.4804 19.4787 14.7929 19.7606C15.106 20.0423 15.1315 20.5253 14.8497 20.8377ZM20.4458 14.4713C20.3672 15.3836 20.0691 16.0931 19.5956 16.6413C19.123 17.1885 18.4814 17.5684 17.7259 17.8323C16.2191 18.3587 14.2359 18.4308 12.1718 18.4308C10.1076 18.4308 8.12449 18.3587 6.61805 17.8395C5.86289 17.5793 5.22148 17.2048 4.74916 16.6657C4.27589 16.1254 3.97821 15.4264 3.90039 14.5279L3.89965 14.5195C3.89697 13.0364 4.35251 12.277 4.74841 11.6189C4.74836 11.619 4.74846 11.6188 4.74841 11.6189L4.88634 11.3867C4.88627 11.3868 4.88641 11.3866 4.88634 11.3867C5.21992 10.8133 5.50486 10.1925 5.50486 8.91651C5.50486 6.00184 8.19082 2.89999 12.1718 2.89999C16.1528 2.89999 18.8387 6.00184 18.8387 8.91651C18.8387 9.64248 18.931 10.1545 19.0699 10.5645C19.2091 10.9752 19.3964 11.2878 19.5951 11.6187C19.9905 12.276 20.4462 13.0356 20.4462 14.4627L20.4458 14.4713ZM4.83426 11.6702C4.44189 12.3224 3.99737 13.0629 4.00001 14.5193C4.30491 18.0392 8.03951 18.3308 12.1718 18.3308C16.3041 18.3308 20.0378 18.0392 20.3462 14.4627C20.3462 13.0629 19.9017 12.3224 19.5093 11.6702C19.1125 11.0092 18.7387 10.3861 18.7387 8.91651C18.7387 6.05944 16.0999 2.99999 12.1718 2.99999C8.24365 2.99999 5.60486 6.05944 5.60486 8.91651C5.60486 10.2132 5.31383 10.8508 4.97278 11.437L4.83426 11.6702ZM12.1718 4.42558C9.13333 4.42558 7.03044 6.80538 7.03044 8.91651C7.03044 9.84483 6.90155 10.5276 6.71374 11.0749C6.52621 11.6213 6.28106 12.029 6.05581 12.4035C5.87442 12.7055 5.71765 12.9672 5.60493 13.2798C5.49316 13.5898 5.42336 13.954 5.42296 14.4583C5.45927 14.8634 5.55271 15.211 5.75086 15.5076C5.94923 15.8045 6.25853 16.0593 6.74184 16.2671C7.71475 16.6855 9.37139 16.9052 12.1718 16.9052C14.9564 16.9052 16.6137 16.6758 17.591 16.2457C18.0767 16.032 18.3895 15.7707 18.5908 15.4672C18.7918 15.1642 18.8872 14.8105 18.9233 14.4011C18.9215 13.9261 18.8513 13.5764 18.7393 13.2734C18.6262 12.9675 18.4694 12.706 18.288 12.4039C18.0628 12.0294 17.8174 11.6213 17.6298 11.0749C17.442 10.5276 17.3131 9.84483 17.3131 8.91651C17.3131 6.80538 15.2103 4.42558 12.1718 4.42558ZM18.3737 12.3524C18.7352 12.9542 19.0206 13.4297 19.0233 14.4053C18.8766 16.0906 17.7419 17.0052 12.1718 17.0052C6.57077 17.0052 5.47054 16.1294 5.32296 14.4627C5.32296 13.4297 5.6084 12.9542 5.96984 12.3524C6.42054 11.603 6.93044 10.7538 6.93044 8.91651C6.93044 6.7452 9.08319 4.32558 12.1718 4.32558C15.2604 4.32558 17.4131 6.7452 17.4131 8.91651C17.4131 10.7538 17.923 11.603 18.3737 12.3524Z" fill="#3A94E7"/>
</svg>
