Streak.svg<svg width="25" height="24" viewBox="0 0 25 24" fill="none" xmlns="http://www.w3.org/2000/svg">
<path d="M19.8309 7.20162L12.8357 3.13557C12.6829 3.0468 12.5097 3.00006 12.3333 3.00006C12.1569 3.00006 11.9837 3.0468 11.8309 3.13557L4.83571 7.20162C4.68287 7.29044 4.55597 7.41823 4.46778 7.57211C4.37959 7.726 4.33322 7.90055 4.33333 8.07821V16.2083C4.33322 16.3859 4.37959 16.5605 4.46778 16.7144C4.55597 16.8683 4.68287 16.996 4.83571 17.0849L11.8309 21.1509C11.9837 21.2397 12.1569 21.2864 12.3333 21.2864C12.5097 21.2864 12.6829 21.2397 12.8357 21.1509L19.8309 17.0849C19.9837 16.996 20.1106 16.8683 20.1988 16.7144C20.287 16.5605 20.3334 16.3859 20.3333 16.2083V8.07754C20.3333 7.89999 20.2868 7.72558 20.1987 7.57182C20.1105 7.41807 19.9836 7.29039 19.8309 7.20162Z" fill="#3A94E7"/>
<path d="M12.8357 21.1502L19.8309 17.0842C19.9838 16.9953 20.1107 16.8675 20.1988 16.7137C20.287 16.5598 20.3334 16.3852 20.3333 16.2076V8.0775C20.3334 7.89984 20.287 7.72529 20.1988 7.5714C20.1107 7.41752 19.9838 7.28974 19.8309 7.20091L12.8357 3.13486C12.6829 3.04631 12.5096 2.9998 12.3333 3V21.2857C12.5097 21.2857 12.683 21.239 12.8357 21.1502Z" fill="#2A7DF3"/>
<path d="M15.6826 11.5819L13.1713 7.78958C13.0794 7.65075 12.9548 7.53697 12.8086 7.45837C12.6624 7.37978 12.4991 7.33882 12.3334 7.33914C12.168 7.33916 12.0051 7.38028 11.8593 7.45885C11.7134 7.53743 11.5891 7.65103 11.4974 7.78958L8.98414 11.5819C8.87412 11.748 8.81541 11.9432 8.81541 12.1429C8.81541 12.3425 8.87412 12.5378 8.98414 12.7039L11.4954 16.4962C11.5873 16.635 11.7119 16.7488 11.8582 16.8274C12.0044 16.906 12.1676 16.9469 12.3334 16.9466C12.4988 16.9466 12.6616 16.9055 12.8075 16.8269C12.9533 16.7483 13.0776 16.6347 13.1693 16.4962L15.6826 12.7039C15.7926 12.5378 15.8513 12.3425 15.8513 12.1429C15.8513 11.9432 15.7926 11.748 15.6826 11.5819Z" fill="#D0EFFF"/>
<path d="M12.3333 16.9466C12.4987 16.9466 12.6616 16.9055 12.8074 16.8269C12.9532 16.7483 13.0775 16.6347 13.1693 16.4962L15.6826 12.7039C15.7926 12.5378 15.8513 12.3425 15.8513 12.1429C15.8513 11.9432 15.7926 11.748 15.6826 11.5819L13.1713 7.78958C13.0794 7.65075 12.9547 7.53697 12.8085 7.45837C12.6623 7.37978 12.4991 7.33882 12.3333 7.33914V16.9466Z" fill="#8AC7FF"/>
</svg>
